<svg width="87" height="87" viewBox="0 0 87 87" fill="none" xmlns="http://www.w3.org/2000/svg">
<g clip-path="url(#clip0)">
<path d="M67.703 26.3289C68.0301 25.3477 68.1936 24.0395 68.1936 22.8947C68.1936 18.6429 65.5771 14.718 61.8158 12.9192C60.1805 5.56015 52.1673 0 42.8459 0C33.0339 0 24.8572 6.05075 23.7125 14.0639C20.9324 16.1899 19.297 19.4605 19.297 22.8947C19.297 23.8759 19.4606 24.8571 19.6241 25.6748C18.1523 27.6372 17.4982 29.9267 17.4982 32.2162C17.4982 36.7951 20.4418 40.8835 24.5301 42.5188L42.0282 86.0188C42.3553 86.6729 42.8459 87 43.5 87C44.1542 87 44.8083 86.6729 44.9718 86.0188L62.47 42.5188C66.5583 40.8835 69.5019 36.9586 69.5019 32.2162C69.5019 30.0902 68.8478 27.9643 67.703 26.3289ZM28.4549 44.1541L28.1279 43.5H28.2914C28.6185 43.5 28.782 43.5 29.1091 43.5L28.4549 44.1541ZM29.7632 47.5883L34.5057 42.5188C35.4869 43.8271 36.7952 44.8083 38.267 45.4624L40.72 47.9154L34.8328 54.1297L30.5809 49.5508L29.7632 47.5883ZM43.0094 50.3684L48.8967 56.5827L43.0094 62.9605L37.1222 56.5827L43.0094 50.3684ZM34.5057 59.1992L34.8328 58.8722L40.72 65.4135L38.1034 68.1936L34.5057 59.1992ZM43.3365 81.1128L39.5752 71.6278L43.0094 67.8665L46.9343 72.282L43.3365 81.1128ZM48.4061 68.6842L45.2989 65.25L51.1861 58.8722L52.0038 59.6898L48.4061 68.6842ZM51.1861 54.1297L45.2989 47.9154L47.5884 45.4624C49.2237 44.8083 50.532 43.8271 51.5132 42.5188L56.7463 48.0789L51.1861 54.1297ZM58.0546 44.6447L56.7463 43.3365C57.2369 43.3365 57.7275 43.5 58.3816 43.5H58.5452L58.0546 44.6447ZM58.3816 40.0658C56.4192 40.0658 54.4568 39.2481 52.985 37.7763C52.6579 37.4492 52.0038 37.2857 51.5132 37.2857C51.0226 37.4492 50.532 37.7763 50.3685 38.2669C49.0602 41.047 46.2801 43.0094 43.173 43.0094C40.2294 43.0094 37.4493 41.2105 36.141 38.594C35.9775 38.1034 35.4869 37.7763 34.9963 37.6128C34.8328 37.6128 34.8328 37.6128 34.6692 37.6128C34.3422 37.6128 33.8515 37.7763 33.5245 38.1034C32.0527 39.4117 30.2538 40.0658 28.2914 40.0658C24.0395 40.0658 20.4418 36.6316 20.4418 32.2162C20.4418 30.2538 21.0959 28.4549 22.4042 27.1466C22.7313 26.656 22.8948 26.0019 22.7313 25.5113C22.4042 24.6936 22.2406 23.7124 22.2406 22.8947C22.2406 20.2782 23.5489 17.8252 25.8384 16.3534C26.329 16.0263 26.4925 15.5357 26.6561 15.0451C27.1467 8.50376 34.1786 3.27068 42.6824 3.27068C50.6955 3.27068 57.5639 8.01316 58.5452 14.391C58.7087 15.0451 59.0358 15.5357 59.5264 15.6992C62.6335 16.844 64.5959 19.7876 64.5959 23.0583C64.5959 24.0395 64.4324 25.1842 63.9418 26.1654C63.7782 26.656 63.7782 27.3101 64.1053 27.8008C65.0865 29.109 65.7406 30.7444 65.7406 32.5432C66.0677 36.6316 62.6335 40.0658 58.3816 40.0658Z" fill="black"/>
<path d="M43.3365 7.35879C43.1729 6.37759 42.3553 5.88699 41.3741 6.05052C41.047 6.05052 31.8891 7.84939 30.2538 16.5167C30.0902 17.3344 30.5808 18.3156 31.562 18.4791C31.7256 18.4791 31.7256 18.4791 31.8891 18.4791C32.7068 18.4791 33.3609 17.9885 33.5244 17.1708C34.8327 10.793 41.7011 9.48473 42.0282 9.3212C42.8459 9.15766 43.5 8.33999 43.3365 7.35879Z" fill="orange"/>
<path d="M55.6016 19.6239C54.7839 19.2969 53.8027 19.7875 53.4756 20.6051C53.1485 21.4228 53.6391 22.404 54.4568 22.7311C54.7839 22.8946 57.564 24.0393 57.4004 27.31C57.4004 28.2912 58.0546 28.9454 59.0358 28.9454C59.8534 28.9454 60.6711 28.2912 60.6711 27.31C60.8346 22.8946 57.564 20.2781 55.6016 19.6239Z" fill="orange"/>
</g>
<defs>
<clipPath id="clip0">
<rect width="87" height="87" fill="black"/>
</clipPath>
</defs>
</svg>
