<svg width="9" height="19" viewBox="0 0 9 19" fill="none" xmlns="http://www.w3.org/2000/svg">
<path d="M7.74056 5.50992C7.65836 5.20245 7.59151 4.93867 7.53505 4.69824H1.52628C1.45625 4.99813 1.38282 5.27877 1.32097 5.50982C1.1889 6.00222 1.17189 6.51841 1.27125 7.01844C1.37061 7.51848 1.58369 7.98894 1.89399 8.39344C2.20428 8.79794 2.60349 9.12563 3.0607 9.35114C3.51792 9.57666 4.02089 9.69396 4.5307 9.69397C5.04051 9.69398 5.54349 9.57669 6.00071 9.35119C6.45793 9.12569 6.85715 8.79802 7.16746 8.39353C7.47777 7.98904 7.69086 7.51857 7.79024 7.01855C7.88961 6.51852 7.87262 6.00233 7.74056 5.50992Z" fill="orange"/>
<path d="M8.30519 17.1423L5.69239 16.4643C5.18793 16.3334 5.06343 16.1422 5.06343 15.6513V12.0756C5.06343 11.1876 5.31992 10.8492 6.11374 10.5515C7.14989 10.1589 8.00323 9.39535 8.50809 8.40902C9.01294 7.4227 9.13331 6.28397 8.84581 5.21389C8.46905 3.80531 8.13198 2.38569 8.62164 0.756973C8.64737 0.668645 8.65214 0.575535 8.63557 0.485041C8.61901 0.394547 8.58156 0.309164 8.52622 0.235676C8.47087 0.162189 8.39915 0.102623 8.31675 0.0617114C8.23435 0.0208001 8.14354 -0.000328758 8.05154 3.86724e-06H1.00964C0.917639 -0.000328758 0.826832 0.0208001 0.744432 0.0617114C0.662031 0.102623 0.590309 0.162189 0.534963 0.235676C0.479617 0.309164 0.442174 0.394547 0.425609 0.485041C0.409044 0.575535 0.413813 0.668645 0.439538 0.756973C0.929201 2.38569 0.592125 3.80531 0.215369 5.21389C-0.0721279 6.28397 0.0482353 7.4227 0.553093 8.40902C1.05795 9.39535 1.91129 10.1589 2.94744 10.5515C3.74126 10.8492 3.99775 11.1876 3.99775 12.0756V15.6513C3.99775 16.1422 3.87325 16.3334 3.36879 16.4643L0.755987 17.1423C0.197761 17.2872 0.0610352 17.5699 0.0610352 18.0406V18.2186C0.0610333 18.2409 0.0654245 18.263 0.073958 18.2836C0.0824916 18.3042 0.0950004 18.3229 0.11077 18.3387C0.12654 18.3544 0.145261 18.367 0.165866 18.3755C0.18647 18.384 0.208554 18.3884 0.230856 18.3884H8.83032C8.85262 18.3884 8.87471 18.384 8.89531 18.3755C8.91592 18.367 8.93464 18.3544 8.95041 18.3387C8.96618 18.3229 8.97868 18.3042 8.98722 18.2836C8.99575 18.263 9.00014 18.2409 9.00014 18.2186V18.0406C9.00014 17.5699 8.86342 17.2872 8.30519 17.1423ZM1.37352 8.65212C1.03288 8.16717 0.80399 7.61274 0.703314 7.02873C0.602638 6.44472 0.632685 5.84565 0.791292 5.27464C1.17931 3.81279 1.45704 2.44809 1.07436 0.906056C1.06453 0.866385 1.06386 0.824996 1.0724 0.785027C1.08094 0.745058 1.09846 0.707558 1.12365 0.675369C1.14883 0.64318 1.18102 0.617147 1.21776 0.599243C1.2545 0.581339 1.29483 0.572035 1.33571 0.572035H7.72547C7.76634 0.572035 7.80668 0.581341 7.84342 0.599245C7.88016 0.617149 7.91234 0.643182 7.93753 0.675371C7.96271 0.70756 7.98024 0.74506 7.98878 0.785028C7.99732 0.824997 7.99665 0.866385 7.98682 0.906056C7.60414 2.44809 7.88187 3.81279 8.26988 5.27464C8.42849 5.84565 8.45854 6.44472 8.35786 7.02873C8.25719 7.61274 8.02829 8.16717 7.68765 8.65212C7.32646 9.15146 6.85198 9.558 6.30317 9.83836C5.75436 10.1187 5.14687 10.2649 4.53059 10.2649C3.91431 10.2649 3.30682 10.1187 2.75801 9.83836C2.2092 9.558 1.73471 9.15146 1.37352 8.65212Z" fill="orange"/>
</svg>
