<svg width="19" height="16" viewBox="0 0 19 16" fill="none" xmlns="http://www.w3.org/2000/svg">
<path d="M18.6724 0.766602H0.327586C0.146759 0.766602 0 0.913033 0 1.09419V15.508C0 15.6891 0.146759 15.8356 0.327586 15.8356H18.6724C18.8532 15.8356 19 15.6891 19 15.508V1.09419C19 0.913033 18.8532 0.766602 18.6724 0.766602ZM18.3448 15.1804H0.655172V1.42177H18.3448V15.1804Z" fill="black"/>
<path d="M5.24132 8.01877C6.24734 8.01877 7.06565 7.20046 7.06565 6.19477C7.06565 5.18843 6.24734 4.37012 5.24132 4.37012C4.2353 4.37012 3.41699 5.18843 3.41699 6.19444C3.41699 7.20046 4.2353 8.01877 5.24132 8.01877ZM5.24132 5.02529C5.88601 5.02529 6.41048 5.55008 6.41048 6.19444C6.41048 6.83881 5.88601 7.3636 5.24132 7.3636C4.59663 7.3636 4.07216 6.83913 4.07216 6.19477C4.07216 5.55041 4.59663 5.02529 5.24132 5.02529Z" fill="black"/>
<path d="M2.29309 13.8702C2.36975 13.8702 2.44706 13.8433 2.5093 13.7886L7.85321 9.08382L11.228 12.4583C11.3561 12.5864 11.5631 12.5864 11.6912 12.4583C11.8193 12.3302 11.8193 12.1232 11.6912 11.9951L10.1165 10.4204L13.1241 7.12682L16.813 10.5085C16.9464 10.6307 17.1537 10.6215 17.2759 10.4882C17.3981 10.3549 17.3892 10.1475 17.2556 10.0253L13.3246 6.42186C13.2604 6.36322 13.1749 6.33407 13.0887 6.33603C13.0019 6.33996 12.92 6.37829 12.8614 6.4425L9.65297 9.95651L8.09923 8.40277C7.97671 8.28058 7.78082 8.27436 7.65109 8.38836L2.07656 13.2966C1.94061 13.4162 1.92751 13.6232 2.04707 13.7591C2.11194 13.8328 2.20235 13.8702 2.29309 13.8702Z" fill="black"/>
</svg>
