<svg width="19" height="25" viewBox="0 0 19 25" fill="none" xmlns="http://www.w3.org/2000/svg">
<path d="M16.3853 9.31157V6.71296C16.3853 3.01157 13.2902 0 9.4862 0C5.68224 0 2.58715 3.01157 2.58715 6.71296V9.31157C1.12067 9.58287 0 10.9551 0 12.6065V21.6537C0 23.4986 1.39835 25 3.11708 25H15.8553C17.5741 25 18.9724 23.4986 18.9724 21.6532V12.606C18.9724 10.9551 17.8517 9.58287 16.3853 9.31157ZM3.44953 6.71296C3.44953 3.52176 6.15741 0.925926 9.4862 0.925926C12.815 0.925926 15.5229 3.52176 15.5229 6.71296V9.25926H3.44953V6.71296ZM18.11 21.6532C18.11 22.988 17.0984 24.0741 15.8553 24.0741H3.11708C1.87396 24.0741 0.862382 22.988 0.862382 21.6532V12.606C0.862382 11.2713 1.87396 10.1852 3.11708 10.1852H15.8553C17.0984 10.1852 18.11 11.2713 18.11 12.606V21.6532Z" fill="white" fill-opacity="0.58"/>
<path d="M9.48599 12.9629C8.53479 12.9629 7.76123 13.7934 7.76123 14.8147V17.5925C7.76123 18.6138 8.53479 19.4444 9.48599 19.4444C10.4372 19.4444 11.2108 18.6138 11.2108 17.5925V14.8147C11.2108 13.7934 10.4372 12.9629 9.48599 12.9629ZM10.3484 17.5925C10.3484 18.1032 9.9616 18.5184 9.48599 18.5184C9.01039 18.5184 8.62361 18.1032 8.62361 17.5925V14.8147C8.62361 14.3041 9.01039 13.8888 9.48599 13.8888C9.9616 13.8888 10.3484 14.3041 10.3484 14.8147V17.5925Z" fill="white" fill-opacity="0.58"/>
</svg>
