<svg width="81" height="81" viewBox="0 0 81 81" fill="none" xmlns="http://www.w3.org/2000/svg">
<g clip-path="url(#clip0)">
<path d="M60.2106 32.5012L64.9697 32.1991C64.9778 32.1984 64.9864 32.1978 64.9951 32.1972C68.3865 31.9105 71.4307 30.1303 73.3477 27.3118L77.11 21.7812C80.3847 16.9664 81.6534 11.1509 80.6813 5.40669C80.4904 4.27852 79.9144 3.2389 79.0603 2.48039C78.2057 1.72127 77.1069 1.27297 75.9661 1.21848C70.1558 0.939849 64.5476 2.89959 60.1698 6.73423L55.1407 11.1398C52.5779 13.3843 51.1788 16.6258 51.3012 20.0344C51.3018 20.0425 51.3018 20.0512 51.3024 20.0598L51.5737 24.8294C51.6794 26.6889 50.999 28.5235 49.7105 29.8598L10.4204 70.3015C9.36859 71.4006 8.82538 72.9083 8.89151 74.5473C8.96443 76.3517 9.79067 78.1238 11.102 79.2885C12.2867 80.3405 13.9151 80.9399 15.5429 80.9399C15.7171 80.9399 15.8914 80.933 16.065 80.9188C17.6971 80.7882 19.1265 80.0674 20.0943 78.8823L55.4472 34.9606C56.6195 33.5155 58.3561 32.6189 60.2106 32.5012V32.5012ZM53.5599 33.43L18.2101 77.3479C17.6699 78.0092 16.8394 78.4167 15.8716 78.4941C14.7203 78.5863 13.54 78.2024 12.7131 77.4681C11.8862 76.7331 11.3647 75.6049 11.3183 74.4489C11.2788 73.4774 11.5822 72.6025 12.1668 71.9919L51.4538 31.5532C53.2151 29.7272 54.142 27.2263 53.9987 24.6914L53.7274 19.9341C53.6353 17.266 54.7322 14.7292 56.7388 12.9713L61.768 8.5658C65.6711 5.14725 70.6731 3.40175 75.8505 3.64819C76.4401 3.67667 77.0074 3.90825 77.4493 4.30081C77.8911 4.69276 78.1884 5.23022 78.2872 5.81288C79.1537 10.9342 78.0227 16.1181 75.1034 20.4103L71.3411 25.9415C69.84 28.1483 67.4577 29.5433 64.8029 29.7718L60.0568 30.0728C57.528 30.2337 55.1611 31.456 53.5599 33.43Z" fill="black"/>
<path d="M78.7569 69.9944L52.4129 45.9531C51.9173 45.5005 51.1497 45.5364 50.6974 46.033C50.2463 46.5296 50.2821 47.2992 50.7777 47.7518L77.1149 71.7876C77.7415 72.3677 78.0969 73.2228 78.116 74.195C78.1389 75.3516 77.6859 76.5089 76.9042 77.2922C76.123 78.0748 74.9699 78.5299 73.813 78.5064C72.8428 78.4872 71.9893 78.1312 71.4165 77.5101L47.9418 51.6874C47.4901 51.1902 46.7219 51.1549 46.2263 51.6069C45.7307 52.0595 45.6948 52.8292 46.1466 53.3258L69.6268 79.1547C70.6588 80.2729 72.1284 80.907 73.7654 80.9392C73.8081 80.9398 73.8501 80.9404 73.8927 80.9404C75.6521 80.9404 77.4115 80.2253 78.6209 79.0129C79.8606 77.7708 80.5793 75.9522 80.5435 74.1473C80.5113 72.5071 79.8791 71.0346 78.7569 69.9944V69.9944Z" fill="black"/>
<path d="M14.6512 32.2706C16.6608 34.1257 19.2718 35.1833 22.0033 35.2489C22.0119 35.2496 22.0206 35.2496 22.0286 35.2496L26.797 35.2644C28.6559 35.27 30.4425 36.0607 31.6964 37.4297L33.7969 39.7399C34.0367 40.0037 34.3648 40.1375 34.6948 40.1375C34.9865 40.1375 35.2794 40.0328 35.5118 39.8204C36.008 39.3678 36.0439 38.5981 35.5921 38.1016L33.4885 35.7883C31.7755 33.9171 29.3394 32.8397 26.805 32.831L22.0496 32.8162C19.9368 32.7623 17.9166 31.9518 16.3512 30.532L2.53252 14.0726C2.39162 13.9042 2.40213 13.6603 2.55724 13.5048C2.66353 13.3977 2.78837 13.3822 2.85325 13.3822C2.91814 13.3822 3.04297 13.3977 3.14988 13.5048L15.7283 26.1085C16.9717 27.3543 18.995 27.3543 20.2383 26.1078L21.7166 24.6274V24.6267L24.3411 21.997C24.3411 21.997 24.3417 21.997 24.3417 21.9964L24.3424 21.9958L25.82 20.5153C27.0633 19.2695 27.0633 17.2423 25.82 15.9965L13.2415 3.39347C13.0784 3.23 13.0784 2.96313 13.2415 2.79966C13.3967 2.64425 13.6401 2.63372 13.8082 2.7749L30.2354 16.6212C31.6531 18.189 32.462 20.2138 32.5158 22.3302L32.53 27.0955C32.5387 29.6341 33.6146 32.075 35.4846 33.7951L37.7353 35.8489C38.2315 36.3016 38.9991 36.2657 39.4508 35.7691C39.9019 35.2719 39.8661 34.5028 39.3705 34.0502L37.1235 31.9994C35.7534 30.74 34.9649 28.9493 34.9587 27.0874L34.9439 22.3097C34.9439 22.3011 34.9438 22.2924 34.9432 22.2837C34.8777 19.5469 33.8222 16.9308 31.9707 14.9172C31.9361 14.8794 31.8991 14.8435 31.8595 14.8101L15.3711 0.912992C14.2315 -0.0479912 12.5778 0.0238349 11.5248 1.07894C10.4143 2.19162 10.4143 4.00151 11.5248 5.11358L24.1032 17.7172C24.3998 18.0144 24.3998 18.498 24.1032 18.7952L23.4834 19.4156L9.46443 5.36992C8.99044 4.89439 8.22167 4.89439 7.74767 5.36992C7.27368 5.84484 7.27368 6.61512 7.74767 7.09003L21.7666 21.1364L20.8582 22.046L6.83924 8.00024C6.36525 7.52532 5.59648 7.52532 5.12249 8.00024C4.64787 8.47516 4.64787 9.24544 5.12249 9.72035L19.1408 23.7667L18.5216 24.3877C18.225 24.6849 17.7423 24.6849 17.4457 24.3877L4.86664 11.7847C4.329 11.246 3.61399 10.9488 2.85325 10.9488C2.09252 10.9488 1.37751 11.246 0.839866 11.7847C-0.213176 12.8398 -0.284244 14.4968 0.674247 15.6392L14.5449 32.1592C14.5776 32.1988 14.6135 32.236 14.6512 32.2706Z" fill="black"/>
</g>
<defs>
<clipPath id="clip0">
<rect width="81" height="81" fill="white"/>
</clipPath>
</defs>
</svg>
